HIERARCHY
ROOT Hips
{
	OFFSET 0.00000 0.00000 0.00000
	CHANNELS 6 Xposition Yposition Zposition Zrotation Yrotation Xrotation 
	JOINT LHipJoint
	{
		OFFSET 0 0 0
		CHANNELS 3 Zrotation Yrotation Xrotation
		JOINT LeftUpLeg
		{
			OFFSET 1.59801 -1.77853 0.57028
			CHANNELS 3 Zrotation Yrotation Xrotation
			JOINT LeftLeg
			{
				OFFSET 2.39439 -6.57854 0.00000
				CHANNELS 3 Zrotation Yrotation Xrotation
				JOINT LeftFoot
				{
					OFFSET 2.69334 -7.39989 0.00000
					CHANNELS 3 Zrotation Yrotation Xrotation
					JOINT LeftToeBase
					{
						OFFSET 0.09553 -0.26245 1.73747
						CHANNELS 3 Zrotation Yrotation Xrotation
						End Site
						{
							OFFSET 0.00000 -0.00000 0.89391
						}
					}
				}
			}
		}
	}
	JOINT RHipJoint
	{
		OFFSET 0 0 0
		CHANNELS 3 Zrotation Yrotation Xrotation
		JOINT RightUpLeg
		{
			OFFSET -1.54704 -1.77852 0.57028
			CHANNELS 3 Zrotation Yrotation Xrotation
			JOINT RightLeg
			{
				OFFSET -2.40286 -6.60180 0.00000
				CHANNELS 3 Zrotation Yrotation Xrotation
				JOINT RightFoot
				{
					OFFSET -2.63873 -7.24984 0.00000
					CHANNELS 3 Zrotation Yrotation Xrotation
					JOINT RightToeBase
					{
						OFFSET -0.15631 -0.42945 1.84436
						CHANNELS 3 Zrotation Yrotation Xrotation
						End Site
						{
							OFFSET -0.00000 -0.00000 0.95734
						}
					}
				}
			}
		}
	}
	JOINT LowerBack
	{
		OFFSET 0 0 0
		CHANNELS 3 Zrotation Yrotation Xrotation
		JOINT Spine
		{
			OFFSET -0.00436 1.89866 -0.04018
			CHANNELS 3 Zrotation Yrotation Xrotation
			JOINT Spine1
			{
				OFFSET 0.02031 1.88273 0.09634
				CHANNELS 3 Zrotation Yrotation Xrotation
				JOINT Neck
				{
					OFFSET 0 0 0
					CHANNELS 3 Zrotation Yrotation Xrotation
					JOINT Neck1
					{
						OFFSET -0.13105 1.89371 0.23083
						CHANNELS 3 Zrotation Yrotation Xrotation
						JOINT Head
						{
							OFFSET 0.17062 1.83990 -0.54062
							CHANNELS 3 Zrotation Yrotation Xrotation
							End Site
							{
								OFFSET 0.04576 1.94782 -0.21839
							}
						}
					}
				}
				JOINT LeftShoulder
				{
					OFFSET 0 0 0
					CHANNELS 3 Zrotation Yrotation Xrotation
					JOINT LeftArm
					{
						OFFSET 3.12424 1.09204 0.22226
						CHANNELS 3 Zrotation Yrotation Xrotation
						JOINT LeftForeArm
						{
							OFFSET 5.29277 -0.00000 0.00000
							CHANNELS 3 Zrotation Yrotation Xrotation
							JOINT LeftHand
							{
								OFFSET 2.85226 -0.00000 0.00000
								CHANNELS 3 Zrotation Yrotation Xrotation
								JOINT LeftFingerBase
								{
									OFFSET 0 0 0
									CHANNELS 3 Zrotation Yrotation Xrotation
									JOINT LeftHandIndex1
									{
										OFFSET 0.60210 -0.00000 0.00000
										CHANNELS 3 Zrotation Yrotation Xrotation
										End Site
										{
											OFFSET 0.48543 -0.00000 0.00000
										}
									}
								}
								JOINT LThumb
								{
									OFFSET 0 0 0
									CHANNELS 3 Zrotation Yrotation Xrotation
									End Site
									{
										OFFSET 0.49284 -0.00000 0.49284
									}
								}
							}
						}
					}
				}
				JOINT RightShoulder
				{
					OFFSET 0 0 0
					CHANNELS 3 Zrotation Yrotation Xrotation
					JOINT RightArm
					{
						OFFSET -2.91709 1.01504 0.30199
						CHANNELS 3 Zrotation Yrotation Xrotation
						JOINT RightForeArm
						{
							OFFSET -5.13304 -0.00000 0.00000
							CHANNELS 3 Zrotation Yrotation Xrotation
							JOINT RightHand
							{
								OFFSET -2.74305 -0.00000 0.00000
								CHANNELS 3 Zrotation Yrotation Xrotation
								JOINT RightFingerBase
								{
									OFFSET 0 0 0
									CHANNELS 3 Zrotation Yrotation Xrotation
									JOINT RightHandIndex1
									{
										OFFSET -0.76798 -0.00000 0.00000
										CHANNELS 3 Zrotation Yrotation Xrotation
										End Site
										{
											OFFSET -0.61916 -0.00000 0.00000
										}
									}
								}
								JOINT RThumb
								{
									OFFSET 0 0 0
									CHANNELS 3 Zrotation Yrotation Xrotation
									End Site
									{
										OFFSET -0.62862 -0.00000 0.62862
									}
								}
							}
						}
					}
				}
			}
		}
	}
}
MOTION
Frames: 7
Frame Time: .0083333
0.1122 17.5115 -0.524 0 0 0 0 0 0 -21 0 0 0 0 0 0 0 0 0 0 0 0 0 0 21 0 0 0 0 0 0 0 0 0 0 0 0 0 0 0 0 0 0 0 0 0 0 -16 0 0 21 0 0 11 0 0 0 -8 0 0 0 0 0 0 0 0 0 0 0 0 0 0 0 0 0 0 0 0 8 0 0 0 0 0 0 0 0 0 0 0 0 0 0 0 0 0
0.1122 17.5115 -0.5240 -0.5327 -3.0697 5.1259 0.0000 0.0000 0.0000 -19.2831 -15.8682 1.3775 0.3807 3.9624 10.9709 0.2999 8.1600 -16.3699 0.7014 -5.3530 -14.9182 0.0000 0.0000 0.0000 19.3437 13.5047 6.4499 0.0000 -0.0000 0.0000 0.2759 -10.4141 -8.8999 -0.7815 5.6441 -15.7551 0.3401 0.2894 -3.2677 0.7667 0.3711 -1.5398 0.6071 0.1862 0.2508 -14.2015 -10.7802 -15.6988 9.3519 -13.4763 18.0077 3.6172 -6.3343 9.9278 0.0000 0.0000 0.0000 -81.0905 -3.2030 31.8926 12.5948 -20.6906 -2.3081 -0.0000 -0.0000 5.8783 12.3667 24.6218 5.2193 -7.1250 0.0000 -0.0000 -17.9894 54.2019 -4.1712 0.0000 0.0000 0.0000 88.7699 -2.0715 20.5726 -11.3585 18.8357 -1.8901 0.0000 0.0000 26.1103 -9.6283 14.1499 -2.3748 7.1250 -0.0000 -0.0000 12.1400 -15.8434 8.5612
0.1125 17.5113 -0.5314 -0.5960 -3.0001 5.2275 0.0000 0.0000 0.0000 -19.1819 -16.0101 1.1653 0.3932 4.0265 11.1514 0.3081 7.9850 -16.2978 0.6354 -5.1002 -14.1947 0.0000 0.0000 0.0000 19.3899 13.4864 6.3085 0.0000 -0.0000 0.0000 0.2746 -10.3668 -8.8181 -0.8654 5.9317 -16.5864 0.3580 0.2621 -3.3577 0.8287 0.3331 -1.5431 0.6597 0.1673 0.2977 -14.2776 -10.8204 -15.6967 9.4884 -13.5461 17.9980 3.6644 -6.3577 9.9496 -0.0000 0.0000 0.0000 -81.1926 -3.6074 31.7313 12.3528 -20.3316 -2.2234 -0.0000 -0.0000 6.3777 13.2124 24.2641 5.5108 -7.1250 0.0000 -0.0000 -16.9644 54.0159 -3.8445 -0.0000 0.0000 0.0000 88.6118 -1.8013 19.7627 -11.0679 18.3923 -1.7973 0.0000 0.0000 27.6493 -10.4556 14.0057 -2.5572 7.1250 -0.0000 -0.0000 11.5843 -15.9347 8.1287
0.1139 17.5115 -0.5364 -0.6276 -2.9387 5.2727 0.0000 0.0000 0.0000 -19.1619 -16.0940 1.1090 0.3948 4.0342 11.1730 0.3260 7.7289 -16.2740 0.6096 -4.9973 -13.9008 0.0000 0.0000 0.0000 19.4042 13.4521 6.2285 0.0000 0.0000 -0.0000 0.2677 -10.3083 -8.8975 -0.8416 5.8517 -16.3548 0.3824 0.2371 -3.3754 0.8484 0.2989 -1.5657 0.6651 0.1502 0.2847 -14.2932 -10.8332 -15.6287 9.6271 -13.6033 17.9896 3.7084 -6.3736 9.9539 0.0000 -0.0000 0.0000 -81.2781 -3.9574 31.4532 12.1034 -19.9596 -2.1375 -0.0000 -0.0000 7.0512 13.6438 24.3413 5.7133 -7.1250 0.0000 -0.0000 -16.5765 54.1703 -3.8161 0.0000 -0.0000 0.0000 88.5278 -1.5696 18.6886 -10.7483 17.9014 -1.6977 0.0000 0.0000 29.3533 -11.2383 14.0984 -2.7710 7.1250 -0.0000 -0.0000 11.0514 -15.7911 7.7748
0.1167 17.5132 -0.5391 -0.6278 -2.8695 5.2546 0.0000 0.0000 0.0000 -19.1794 -16.1830 1.0730 0.4011 4.0662 11.2631 0.3400 7.6427 -16.3694 0.6928 -5.3209 -14.8261 0.0000 0.0000 0.0000 19.3942 13.3834 6.2135 0.0000 -0.0000 0.0000 0.2633 -10.2891 -8.9956 -0.7331 5.4703 -15.2551 0.3711 0.1907 -3.3509 0.8801 0.2374 -1.5597 0.7016 0.1196 0.2775 -14.3269 -10.8259 -15.6174 9.7325 -13.6169 18.0427 3.7487 -6.3717 9.9836 -0.0000 -0.0000 0.0000 -81.4236 -4.3057 30.9990 11.8908 -19.6406 -2.0654 -0.0000 -0.0000 7.8833 13.6035 24.6066 5.7538 -7.1250 0.0000 -0.0000 -16.7547 54.4189 -3.9617 -0.0000 -0.0000 0.0000 88.4150 -1.2906 17.3962 -10.4154 17.3867 -1.5968 0.0000 0.0000 31.3038 -11.9139 14.4561 -3.0150 7.1250 -0.0000 -0.0000 10.5872 -15.3869 7.5301
0.1201 17.5141 -0.5427 -0.6383 -2.7325 5.2679 0.0000 0.0000 0.0000 -19.1300 -16.3550 0.9881 0.4089 4.1049 11.3721 0.3101 8.0026 -16.3421 0.7663 -5.5899 -15.5989 0.0000 0.0000 0.0000 19.3943 13.2556 6.1649 0.0000 -0.0000 0.0000 0.2670 -10.3348 -8.9916 -0.6582 5.1890 -14.4485 0.3771 0.1544 -3.3596 0.9124 0.1887 -1.5617 0.7296 0.0953 0.2807 -14.3883 -10.8637 -15.5843 9.8705 -13.6959 18.0708 3.7941 -6.3993 10.0138 -0.0000 -0.0000 0.0000 -81.6102 -4.6174 30.6462 11.7191 -19.3820 -2.0081 -0.0000 -0.0000 8.6858 13.4941 24.7733 5.7420 -7.1250 0.0000 -0.0000 -16.9517 54.5589 -4.0690 -0.0000 -0.0000 0.0000 88.2776 -1.0281 16.3999 -10.1569 16.9846 -1.5205 0.0000 0.0000 32.7385 -12.4245 14.4183 -3.1400 7.1250 -0.0000 -0.0000 10.2421 -15.3878 7.2761
0.1237 17.5153 -0.5463 -0.6943 -2.5882 5.2959 0.0000 0.0000 0.0000 -19.0383 -16.5298 0.9051 0.4166 4.1429 11.4789 0.2950 8.1165 -16.2611 0.7133 -5.3974 -15.0455 0.0000 0.0000 0.0000 19.4405 13.1286 6.1051 0.0000 0.0000 -0.0000 0.2716 -10.3569 -8.8952 -0.6737 5.2486 -14.6190 0.4444 0.1170 -3.3685 0.9228 0.1371 -1.5979 0.7006 0.0693 0.2492 -14.3308 -10.8790 -15.5055 9.9455 -13.7686 18.1314 3.8024 -6.4242 10.0322 0.0000 -0.0000 0.0000 -81.7339 -4.9041 30.3395 11.4810 -19.0217 -1.9298 -0.0000 -0.0000 9.2611 13.6105 24.5991 5.7552 -7.1250 0.0000 -0.0000 -16.7436 54.4129 -3.9566 0.0000 -0.0000 0.0000 88.2389 -0.8278 15.5326 -9.9251 16.6224 -1.4535 0.0000 0.0000 33.9336 -12.8862 14.1743 -3.2064 7.1250 -0.0000 -0.0000 9.9315 -15.5990 7.0025
